<svg width="29" height="29" viewBox="0 0 29 29" fill="none" xmlns="http://www.w3.org/2000/svg">
<g id="Iconly/Bulk/Logout">
<g id="Logout">
<path id="Fill 1" opacity="0.4" d="M2.33862 8.47452C2.33862 5.60844 4.71269 3.27441 7.62939 3.27441H13.4307C16.3414 3.27441 18.7095 5.60142 18.7095 8.46283V21.4613C18.7095 24.3286 16.3355 26.6614 13.4176 26.6614H7.61868C4.70674 26.6614 2.33862 24.3344 2.33862 21.473V20.3738V8.47452Z" fill="#5352ED"/>
<path id="Fill 3" d="M25.4672 14.3305L22.1395 10.9288C21.7955 10.578 21.2421 10.578 20.8993 10.9312C20.5576 11.2843 20.5588 11.8538 20.9015 12.2046L22.7249 14.0674H20.9767H11.1655C10.6815 14.0674 10.2886 14.4708 10.2886 14.9678C10.2886 15.4659 10.6815 15.8682 11.1655 15.8682H22.7249L20.9015 17.7309C20.5588 18.0818 20.5576 18.6512 20.8993 19.0044C21.0712 19.1809 21.2956 19.2698 21.5211 19.2698C21.7443 19.2698 21.9687 19.1809 22.1395 19.0067L25.4672 15.6062C25.6323 15.4367 25.7257 15.2075 25.7257 14.9678C25.7257 14.7292 25.6323 14.5 25.4672 14.3305Z" fill="#5352ED"/>
</g>
</g>
</svg>
